<svg xmlns="http://www.w3.org/2000/svg" viewBox="0 0 293 293"><defs><style>.cls-1{fill:#fff;}.cls-2{fill:#5e17eb;}.cls-3{fill:#1d074b;}</style></defs><title>maincolour</title><g id="Layer_2" data-name="Layer 2"><g id="Layer_5" data-name="Layer 5"><rect class="cls-1" width="293" height="293"/><path class="cls-2" d="M210.31,85.55a14,14,0,1,0-14-14A14,14,0,0,0,210.31,85.55Z"/><path class="cls-3" d="M168.13,222.36a13.46,13.46,0,0,0-4.22.68,64.34,64.34,0,1,1,44-61,65.26,65.26,0,0,1-.86,10.57,13.57,13.57,0,0,0-.18,2.19,13.37,13.37,0,0,0,26.56,2.17A91.76,91.76,0,0,0,234.64,162a91,91,0,1,0-62.29,86.45,13.37,13.37,0,0,0-4.22-26.06Z"/><path class="cls-3" d="M240.46,232.24A12,12,0,0,0,236,223.7L169.8,169.52a13.59,13.59,0,0,0-18.33,1.2,11.9,11.9,0,0,0-3.21,9,12.07,12.07,0,0,0,4.49,8.54l66.17,54.17a13.59,13.59,0,0,0,18.34-1.2A11.88,11.88,0,0,0,240.46,232.24Z"/><rect class="cls-3" x="121.75" y="39.94" width="41.96" height="23.76" rx="11.12" ry="11.12"/></g></g></svg>